<?xml version="1.0" encoding="UTF-8"?>
<svg xmlns="http://www.w3.org/2000/svg"
     xmlns:xlink="http://www.w3.org/1999/xlink"
     version="1.2"
     width="203.2mm" height="203.2mm" viewBox="0 0 203.2 203.2"
     stroke="none"
     fill="#000000"
     stroke-width="0.3"
     font-size="3.88"
>
<g stroke-width="1.34" stroke="#BBBBBB" id="img-4d744de1-1">
  <path fill="none" d="M169.28,174.77 L 179.57 179.57"/>
  <path fill="none" d="M174.77,169.28 L 179.57 179.57"/>
  <path fill="none" d="M146.27,146.27 L 179.57 179.57"/>
  <path fill="none" d="M33.92,28.43 L 23.63 23.63"/>
  <path fill="none" d="M28.43,33.92 L 23.63 23.63"/>
  <path fill="none" d="M56.42,56.42 L 23.63 23.63"/>
  <path fill="none" d="M129.28,134.77 L 139.57 139.57"/>
  <path fill="none" d="M134.77,129.28 L 139.57 139.57"/>
  <path fill="none" d="M101.78,101.78 L 139.57 139.57"/>
  <path fill="none" d="M73.41,67.92 L 63.12 63.12"/>
  <path fill="none" d="M67.92,73.41 L 63.12 63.12"/>
  <path fill="none" d="M101.78,101.78 L 63.12 63.12"/>
</g>
<g stroke="#BBBBBB" fill="#AAAAFF" id="img-4d744de1-2">
  <use xlink:href="#img-4d744de1-3" x="186.27" y="186.27"/>
  <use xlink:href="#img-4d744de1-4" x="146.27" y="146.27"/>
  <use xlink:href="#img-4d744de1-5" x="16.93" y="16.93"/>
  <use xlink:href="#img-4d744de1-6" x="56.42" y="56.42"/>
  <use xlink:href="#img-4d744de1-7" x="101.78" y="101.78"/>
</g>
<g font-size="20" stroke="#000000" stroke-opacity="0.000" fill="#000000" id="img-4d744de1-8">
  <text x="186.27" y="186.27" text-anchor="middle" dy="0.35em">D</text>
  <text x="146.27" y="146.27" text-anchor="middle" dy="0.35em">x</text>
  <text x="16.93" y="16.93" text-anchor="middle" dy="0.35em">D</text>
  <text x="56.42" y="56.42" text-anchor="middle" dy="0.35em">x</text>
  <text x="101.78" y="101.78" text-anchor="middle" dy="0.35em">+</text>
</g>
<defs>
  <g id="img-4d744de1-3">
    <circle cx="0" cy="0" r="9.47"/>
  </g>
  <g id="img-4d744de1-4">
    <circle cx="0" cy="0" r="9.47"/>
  </g>
  <g id="img-4d744de1-5">
    <circle cx="0" cy="0" r="9.47"/>
  </g>
  <g id="img-4d744de1-6">
    <circle cx="0" cy="0" r="9.47"/>
  </g>
  <g id="img-4d744de1-7">
    <circle cx="0" cy="0" r="9.47"/>
  </g>
</defs>
</svg>
